<ttFont>
          <CharString index="0">
            -98 callsubr
            90 hmoveto
            -54 callsubr
            159 121 -34 callsubr
            -51 callsubr
            -50 callsubr
            vhcurveto
            return
          </CharString>
          <CharString index="1">
            90 vstem
            -107 callsubr
            return
          </CharString>
          <CharString index="2">
            -12 -56 callsubr
            54 252 rmoveto
            -143 74 -124 189 35 54 4 25 65 vhcurveto
            -89 callsubr
            -139 -94 -102 -161 vhcurveto
            86 34 -65 callsubr
            return
          </CharString>
          <CharString index="3">
            -102 callsubr
            112 71 -85 -104 -104 -71 -85 -112 -113 -70 85 104 vhcurveto
            return
          </CharString>
          <CharString index="4">
            14 -49 rlineto
            63 383 hlineto
            57 -32 75 -105 -35 -52 -4 -4 -44 vhcurveto
            -93 callsubr
            return
          </CharString>
          <CharString index="5">
            25 callsubr
            -146 106 -119 158 156 109 119 146 146 -109 119 -156 -158 -106 -18 callsubr
            vhcurveto
            81 hmoveto
            104 70 85 113 return
          </CharString>
          <CharString index="6">
            329 -37 callsubr
            -289 -46 callsubr
            96 234 rlineto
            297 hlineto
            98 -234 -59 callsubr
            -292 26 callsubr
            -45 -92 rmoveto
            122 -308 rlineto
            -242 hlineto
            return
          </CharString>
          <CharString index="7">
            hstem
            60 90 550 -106 callsubr
            return
          </CharString>
          <CharString index="8">
            -62 callsubr
            4 callsubr
            -11 callsubr
            hintmask 10111110
            -90 callsubr
            hintmask 01111110
            -103 callsubr
            hintmask 10111110
            -94 callsubr
            return
          </CharString>
          <CharString index="9">
            60 350 rmoveto
            -55 callsubr
            210 160 165 200 200 -160 165 -210 -53 callsubr
            vhcurveto
            return
          </CharString>
          <CharString index="10">
            -78 callsubr
            -122 -84 callsubr
            69 98 rlineto
            endchar
          </CharString>
          <CharString index="11">
            -42 callsubr
            235 -20 -100 callsubr
            return
          </CharString>
          <CharString index="12">
            90 vstem
            376 -15 rmoveto
            103 187 49 226 hvcurveto
            440 -90 -460 vlineto
            -123 -123 -49 -77 -77 -123 49 123 vhcurveto
            460 -90 -440 vlineto
            -225 187 -50 103 vhcurveto
            return
          </CharString>
          <CharString index="13">
            -144 -258 rmoveto
            -69 -19 60 41 47 22 43 77 hvcurveto
            133 -143 -1 hlineto
            -24 -35 -62 -24 -46 hhcurveto
            return
          </CharString>
          <CharString index="14">
            -26 -3 -27 -2 -27 -2 rrcurveto
            -78 vlineto
            67 8 rlineto
            4 37 44 4 29 hhcurveto
            67 18 -25 -60 hvcurveto
            -38 vlineto
            return
          </CharString>
          <CharString index="15">
            284 -15 rmoveto
            96 111 56 112 hvcurveto
            347 -84 -347 vlineto
            -60 -62 -28 -61 -59 -64 28 60 vhcurveto
            347 -83 -347 vlineto
            -112 110 -56 96 vhcurveto
            return
          </CharString>
          <CharString index="16">
            11 callsubr
            400 -95 callsubr
            return
          </CharString>
          <CharString index="17">
            240 315 rmoveto
            -122 -64 -72 -85 -76 48 -92 110 60 60 27 32 47 hvcurveto
            3 hlineto
            return
          </CharString>
          <CharString index="18">
            79 vlineto
            -24 -52 -74 -8 -39 hhcurveto
            -123 -41 92 67 -5 hvcurveto
            359 hlineto
            139 -37 156 -172 return
          </CharString>
          <CharString index="19">
            -20 hstem
            78 83 246 84 vstem
            -92 callsubr
            return
          </CharString>
          <CharString index="20">
            -20 hstem
            -101 callsubr
            return
          </CharString>
          <CharString index="21">
            82 vstem
            54 -104 callsubr
            return
          </CharString>
          <CharString index="22">
            183 -15 83 632 -20 270 -91 callsubr
            return
          </CharString>
          <CharString index="23">
            hlineto
            -98 -133 -59 callsubr
            return
          </CharString>
          <CharString index="24">
            rmoveto
            hintmask 11011100
            -60 callsubr
            hintmask 11101100
            -26 callsubr
            hintmask 11011100
            -41 callsubr
            hintmask 11101100
            -61 callsubr
            hintmask 11011100
            -25 callsubr
            hintmask 11101100
            -28 callsubr
          </CharString>
          <CharString index="25">
            rmoveto
            -92 85 92 vlineto
            90 hmoveto
            -92 85 92 vlineto
            endchar
          </CharString>
          <CharString index="26">
            rmoveto
            -110 -84 callsubr
            endchar
          </CharString>
          <CharString index="27">
            10 -15 80 435 -20 270 -88 callsubr
            return
          </CharString>
          <CharString index="28">
            hstem
            71 83 212 83 vstem
            54 65 rmoveto
            21 -15 21 -13 22 -12 rrcurveto
            -20 39 49 -20 51 hhcurveto
            71 121 45 109 100 -75 30 -121 46 hvcurveto
            -45 16 -54 19 25 vvcurveto
            40 55 24 51 31 27 -10 -9 21 vhcurveto
            12 -5 12 -6 11 -7 51 61 rcurveline
            -15 10 -17 9 -17 7 rrcurveto
            13 -31 -41 13 -44 hhcurveto
            -90 -99 -52 -88 -76 76 -28 68 -24 hvcurveto
            96 -35 55 -24 -49 vvcurveto
            -55 -69 -23 -40 -35 -36 15 15 -29 vhcurveto
            -17 9 -17 10 -15 12 rrcurveto
            return
          </CharString>
          <CharString index="29">
            rmoveto
            90 hlineto
            -98 133 rlineto
            return
          </CharString>
          <CharString index="30">
            78 -60 64 -76 -75 -60 -64 -78 vhcurveto
            60 hmoveto
            45 32 37 43 43 33 -37 -45 -44 -33 -37 -43 -43 -32 37 44 vhcurveto
            return
          </CharString>
          <CharString index="31">
            9 callsubr
            270 -87 callsubr
            return
          </CharString>
          <CharString index="32">
            -27 callsubr
            -77 callsubr
            return
          </CharString>
          <CharString index="33">
            70 rmoveto
            16 -17 18 -14 21 -12 rrcurveto
            -21 35 50 -21 60 hhcurveto
            116 114 82 115 133 -97 35 -113 65 hvcurveto
            -48 27 -82 32 66 vvcurveto
            67 69 32 61 37 38 -15 -15 28 vhcurveto
            17 -9 15 -10 14 -11 34 74 rcurveline
            -15 11 -16 11 -19 9 rrcurveto
            15 -32 -45 16 -56 hhcurveto
            -109 -111 -67 -108 hvcurveto
            -188 340 1 -171 vvcurveto
            -72 -65 -49 -75 -37 -41 21 21 -32 vhcurveto
            -19 12 -18 14 -18 16 rrcurveto
            return
          </CharString>
          <CharString index="34">
            532 -71 callsubr
            -446 -700 446 hlineto
            return
          </CharString>
          <CharString index="35">
            -78 callsubr
            17 callsubr
            endchar
          </CharString>
          <CharString index="36">
            64 rmoveto
            -356 286 296 64 -296 222 356 64 return
          </CharString>
          <CharString index="37">
            12 callsubr
            vstem
            -73 callsubr
            return
          </CharString>
          <CharString index="38">
            -36 callsubr
            250 -20 -70 callsubr
            return
          </CharString>
          <CharString index="39">
            rmoveto
            -45 37 -37 45 45 37 37 45 45 -37 37 -45 -45 -37 -37 -45 vhcurveto
            40 hmoveto
            23 19 19 23 23 19 -19 -23 -23 -19 -19 -23 -23 -19 19 23 vhcurveto
            endchar
          </CharString>
          <CharString index="40">
            rmoveto
            -69 98 2 callsubr
            98 -133 rlineto
            122 hlineto
            98 133 2 callsubr
            endchar
          </CharString>
          <CharString index="41">
            24 28 callsubr
            27 81 366 82 vstem
            27 -104 callsubr
            return
          </CharString>
          <CharString index="42">
            rmoveto
            92 11 58 61 76 hhcurveto
            84 33 -74 -79 8 hvcurveto
            return
          </CharString>
          <CharString index="43">
            46 -20 callsubr
            40 -98 44 -110 107 -267 -107 -275 rcurveline
            94 hlineto
            288 750 rlineto
            -94 hlineto
            -140 -366 -137 366 rlineto
            return
          </CharString>
          <CharString index="44">
            311 400 rmoveto
            -181 300 2 callsubr
            228 -379 rlineto
            -321 84 321 vlineto
            239 379 2 callsubr
            return
          </CharString>
          <CharString index="45">
            -22 -10 67 -36 -21 248 67 123 77 return
          </CharString>
          <CharString index="46">
            0 -1 -39 -26 -21 -18 8 10 -19 vhcurveto
            return
          </CharString>
          <CharString index="47">
            0 9 39 21 13 16 -7 -8 18 vhcurveto
            return
          </CharString>
          <CharString index="48">
            rlineto
            90 hlineto
            return
          </CharString>
          <CharString index="49">
            107 503 rmoveto
            -116 84 -96 127 125 87 96 116 116 -87 96 -125 -127 -84 -96 -116 vhcurveto
            65 hmoveto
            83 55 68 91 91 55 -68 -83 -83 -55 -68 -91 -91 -55 68 83 vhcurveto
            return
          </CharString>
          <CharString index="50">
            21 -21 700 -20 return
          </CharString>
          <CharString index="51">
            -15 76 159 66 153 76 hstem
            return
          </CharString>
          <CharString index="52">
            -200 149 -165 211 return
          </CharString>
          <CharString index="53">
            159 110 130 160 return
          </CharString>
          <CharString index="54">
            -211 -149 -30 callsubr
            return
          </CharString>
          <CharString index="55">
            rrcurveto
            -14 33 41 -7 47 hhcurveto
            35 54 4 25 65 hvcurveto
            -89 callsubr
            return
          </CharString>
          <CharString index="56">
            -159 -121 -34 callsubr
            return
          </CharString>
          <CharString index="57">
            -160 -110 -23 callsubr
            return
          </CharString>
          <CharString index="58">
            -38 callsubr
            85 500 vlineto
            return
          </CharString>
          <CharString index="59">
            -20 hstem
            268 84 vstem
            -63 callsubr
            return
          </CharString>
          <CharString index="60">
            61 21 -15 -27 -30 -27 -8 -15 callsubr
            18 17 -2 19 hhcurveto
            77 63 33 63 47 -35 21 -39 7 hvcurveto
            6 28 return
          </CharString>
          <CharString index="61">
            -700 -59 callsubr
            return
          </CharString>
          <CharString index="62">
            350 rmoveto
            -24 callsubr
            vhcurveto
            -43 callsubr
            return
          </CharString>
          <CharString index="63">
            90 155 -20 hstem
            173 90 vstem
            8 301 rmoveto
            165 -155 90 155 165 90 -165 155 -90 -155 -165 hlineto
            return
          </CharString>
          <CharString index="64">
            58 58 rlineto
            48 -63 -75 28 -84 hhcurveto
            -200 -165 -30 callsubr
            return
          </CharString>
          <CharString index="65">
            291 -40 callsubr
            return
          </CharString>
          <CharString index="66">
            57 23 57 52 hvcurveto
            -66 hlineto
            return
          </CharString>
          <CharString index="67">
            -15 76 578 76 return
          </CharString>
          <CharString index="68">
            -15 76 378 76 return
          </CharString>
          <CharString index="69">
            -20 callsubr
            -500 return
          </CharString>
          <CharString index="70">
            700 rmoveto
            return
          </CharString>
          <CharString index="71">
            16 0 64 286 64 222 64 return
          </CharString>
          <CharString index="72">
            -57 callsubr
            hstem
            return
          </CharString>
          <CharString index="73">
            -130 -159 return
          </CharString>
          <CharString index="74">
            25 callsubr
            104 80 85 101 45 45 -5 -10 45 vhcurveto
            76 vlineto
            10 -45 -45 5 -45 hhcurveto
            -145 -118 -18 callsubr
            return
          </CharString>
          <CharString index="75">
            hstem
            413 -20 callsubr
            -359 -76 269 hlineto
            -269 -348 rlineto
            -76 359 76 -269 vlineto
            269 348 rlineto
            return
          </CharString>
          <CharString index="76">
            33 47 45 19 60 hhcurveto
            64 37 -22 -61 hvcurveto
            -355 85 355 vlineto
            113 -83 47 -103 -64 -47 -20 -33 -51 vhcurveto
            return
          </CharString>
          <CharString index="77">
            -165 -200 return
          </CharString>
          <CharString index="78">
            -308 -4 callsubr
            return
          </CharString>
          <CharString index="79">
            -34 -51 -43 -66 hvcurveto
            endchar
          </CharString>
          <CharString index="80">
            -77 60 -64 75 76 60 64 77 return
          </CharString>
          <CharString index="81">
            -11 26 29 -13 27 hhcurveto
            return
          </CharString>
          <CharString index="82">
            10 -21 -21 11 -24 hhcurveto
            return
          </CharString>
          <CharString index="83">
            159 123 130 152 61 56 -22 -36 47 return
          </CharString>
          <CharString index="84">
            130 159 return
          </CharString>
          <CharString index="85">
            hstem
            43 66 rmoveto
            -66 509 66 -399 vlineto
            399 568 rlineto
            66 -509 -66 399 vlineto
            return
          </CharString>
          <CharString index="86">
            rmoveto
            -80 hlineto
            -20 -3 callsubr
            return
          </CharString>
          <CharString index="87">
            500 rmoveto
            return
          </CharString>
          <CharString index="88">
            -68 -57 -51 -80 hvcurveto
            -119 -78 -77 78 -423 return
          </CharString>
          <CharString index="89">
            -119 -146 return
          </CharString>
          <CharString index="90">
            45 45 5 10 45 hvcurveto
            76 vlineto
            -10 -45 -45 -5 -45 hhcurveto
            -101 -80 85 104 hvcurveto
            endchar
          </CharString>
          <CharString index="91">
            60 164 60 163 60 -15 -20 hstemhm
            25 60 151 60 41 60 151 60 return
          </CharString>
          <CharString index="92">
            -35 -13 -11 1 3 -20 hvcurveto
            -12 -57 rlineto
            -3 return
          </CharString>
          <CharString index="93">
            -29 callsubr
            270 -20 hstem
            return
          </CharString>
          <CharString index="94">
            -10 callsubr
            90 hlineto
            return
          </CharString>
          <CharString index="95">
            78 77 -123 hlineto
            -19 callsubr
            vlineto
            return
          </CharString>
          <CharString index="96">
            hstemhm
            54 87 232 86 return
          </CharString>
          <CharString index="97">
            0 callsubr
            -700 return
          </CharString>
          <CharString index="98">
            rmoveto
            255 50 -171 -113 -113 -50 -171 -255 hvcurveto
            -85 return
          </CharString>
          <CharString index="99">
            216 139 161 189 189 -139 161 -216 hvcurveto
            return
          </CharString>
          <CharString index="100">
            -36 -47 -56 -21 -61 20 callsubr
            -23 callsubr
            hvcurveto
            endchar
          </CharString>
          <CharString index="101">
            638 -21 133 -20 hstem
            return
          </CharString>
          <CharString index="102">
            591 179 hstem
            return
          </CharString>
          <CharString index="103">
            21 -21 500 -20 return
          </CharString>
          <CharString index="104">
            -179 rlineto
            60 hlineto
            return
          </CharString>
          <CharString index="105">
            rmoveto
            60 hlineto
            -20 179 rlineto
            -80 hlineto
            return
          </CharString>
          <CharString index="106">
            -57 callsubr
            270 -20 hstem
            return
          </CharString>
          <CharString index="107">
            -37 callsubr
            -90 return
          </CharString>
          <CharString index="108">
            4 callsubr
            hstem
            return
          </CharString>
          <CharString index="109">
            rlineto
            -90 hlineto
            return
          </CharString>
          <CharString index="110">
            hlineto
            hintmask 10010000
            28 170 rlineto
            -80 hlineto
            hintmask 10100000
            -28 -170 rlineto
            return
          </CharString>
          <CharString index="111">
            235 -20 return
          </CharString>
          <CharString index="112">
            hintmask 10100000
            -27 -170 rlineto
            80 hlineto
            hintmask 01100000
            27 170 rlineto
            return
          </CharString>
          <CharString index="113">
            11 37 hhcurveto
            58 29 -24 -49 hvcurveto
            -365 85 405 vlineto
            return
          </CharString>
          <CharString index="114">
            423 132 77 -132 74 vlineto
            21 callsubr
            return
          </CharString>
          <CharString index="115">
            21 -21 423 77 173 77 return
          </CharString>
          <CharString index="116">
            21 -21 234 66 400 -20 return
          </CharString>
          <CharString index="117">
            78 -39 callsubr
            return
          </CharString>
          <CharString index="118">
            -20 12 callsubr
            return
          </CharString>
          <CharString index="119">
            hstem
            86 90 return
          </CharString>
          <CharString index="120">
            rmoveto
            -30 -230 rlineto
            70 hlineto
            60 230 rlineto
            endchar
          </CharString>
          <CharString index="121">
            -250 90 379 31 0 31 379 90 hstemhm
            return
          </CharString>
          <CharString index="122">
            21 -21 438 77 -15 -20 return
          </CharString>
          <CharString index="123">
            70 -31 70 hstemhm
            return
          </CharString>
          <CharString index="124">
            -110 hlineto
            return
          </CharString>
          <CharString index="125">
            -90 -700 429 66 -339 hlineto
            endchar
          </CharString>
          <CharString index="126">
            rmoveto
            -107 100 107 vlineto
            return
          </CharString>
          <CharString index="127">
            hhcurveto
            -152 -123 return
          </CharString>
          <CharString index="128">
            72 13 27 72 vhcurveto
            return
          </CharString>
          <CharString index="129">
            -229 24 callsubr
            return
          </CharString>
          <CharString index="130">
            -4 callsubr
            hstem
            return
          </CharString>
          <CharString index="131">
            -21 750 -20 return
          </CharString>
          <CharString index="132">
            250 rmoveto
            return
          </CharString>
          <CharString index="133">
            700 rlineto
            return
          </CharString>
          <CharString index="134">
            85 90 85 return
          </CharString>
          <CharString index="135">
            -39 callsubr
            1 callsubr
            return
          </CharString>
          <CharString index="136">
            -241 -200 90 720 90 hstem
            return
          </CharString>
          <CharString index="137">
            rmoveto
            -750 85 750 vlineto
            endchar
          </CharString>
          <CharString index="138">
            187 90 hstem
            39 187 rmoveto
            return
          </CharString>
          <CharString index="139">
            420 90 -420 hlineto
            endchar
          </CharString>
          <CharString index="140">
            0 66 568 66 return
          </CharString>
          <CharString index="141">
            -90 -700 90 return
          </CharString>
        <CharString name=".notdef">
          -159 endchar
        </CharString>
        <CharString name=".null">
          -559 endchar
        </CharString>
        <CharString name="A">
          21 -21 234 66 400 -87 callsubr
          endchar
        </CharString>
        <CharString name="AE">
          382 0 64 170 66 50 64 222 64 hstem
          453 90 vstem
          899 -71 callsubr
          -508 hlineto
          -350 -46 callsubr
          116 234 rlineto
          206 -234 446 hlineto
          -618 300 rmoveto
          172 336 rlineto
          -336 vlineto
          endchar
        </CharString>
        <CharString name="Aacute">
          -76 callsubr
          245 650 -81 callsubr
        </CharString>
        <CharString name="Acircumflex">
          -76 callsubr
          190 517 -97 callsubr
        </CharString>
        <CharString name="Adieresis">
          9 callsubr
          178 92 hstem
          245 27 callsubr
          vstem
          -101 callsubr
          -9 650 -82 callsubr
        </CharString>
        <CharString name="Agrave">
          -76 callsubr
          115 517 -72 callsubr
        </CharString>
        <CharString name="Aring">
          9 callsubr
          106 40 84 40 hstem
          293 40 84 40 vstem
          -101 callsubr
          39 568 -68 callsubr
        </CharString>
        <CharString name="Atilde">
          9 callsubr
          161 16 callsubr
          hintmask 11110000
          -101 callsubr
          33 541 rmoveto
          hintmask 11101000
          -60 callsubr
          hintmask 11110000
          -26 callsubr
          hintmask 11101000
          -41 callsubr
          hintmask 11110000
          -61 callsubr
          hintmask 11101000
          -25 callsubr
          hintmask 11110000
          -28 callsubr
        </CharString>
        <CharString name="B">
          76 0 66 293 67 208 66 hstemhm
          86 90 279 90 -43 43 -43 90 hintmask 11110010
          86 -37 callsubr
          -700 247 vlineto
          167 92 96 125 81 -38 61 -75 35 hvcurveto
          hintmask 11110100
          51 35 15 49 43 vvcurveto
          69 -43 106 -176 vhcurveto
          -1 -341 rmoveto
          119 -3 58 -38 -97 vvcurveto
          -100 -61 -55 -125 vhcurveto
          -140 293 hlineto
          274 vmoveto
          86 hlineto
          16 16 0 1 15 hvcurveto
          hintmask 11111000
          114 32 -39 -70 -70 -32 -29 -114 hvcurveto
          -133 hlineto
          endchar
        </CharString>
        <CharString name="C">
          131 -40 callsubr
          hstem
          60 90 vstem
          150 -45 callsubr
          -200 165 -165 200 84 75 28 47 63 hvcurveto
          -58 58 rlineto
          -7 callsubr
        </CharString>
        <CharString name="CR">
          -329 endchar
        </CharString>
        <CharString name="Ccedilla">
          81 -213 58 80 136 578 76 hstem
          24 90 287 76 vstem
          114 -45 callsubr
          -151 93 -128 130 -57 hvcurveto
          27 -12 29 -8 29 -5 -13 -64 rcurveline
          -47 callsubr
          35 2 33 6 31 11 rlinecurve
          37 13 35 19 31 23 -58 58 rcurveline
          -7 callsubr
        </CharString>
        <CharString name="D">
          157 33 callsubr
          12 callsubr
          390 90 vstem
          86 -37 callsubr
          -700 215 vlineto
          -8 callsubr
          -40 -66 -9 callsubr
          568 hlineto
          endchar
        </CharString>
        <CharString name="E">
          -36 callsubr
          -70 callsubr
          endchar
        </CharString>
        <CharString name="Eacute">
          -69 callsubr
          -101 950 -81 callsubr
        </CharString>
        <CharString name="Ecircumflex">
          -69 callsubr
          -176 817 -97 callsubr
        </CharString>
        <CharString name="Edieresis">
          -36 callsubr
          158 92 hstemhm
          86 90 -19 27 callsubr
          hintmask 11111010
          -73 callsubr
          hintmask 11110110
          -375 950 -82 callsubr
        </CharString>
        <CharString name="Egrave">
          -69 callsubr
          -261 817 -72 callsubr
        </CharString>
        <CharString name="Eth">
          157 0 66 229 70 269 66 12 callsubr
          390 90 vstem
          10 295 rmoveto
          76 -295 215 hlineto
          -8 callsubr
          -215 -335 -76 hlineto
          251 269 -9 callsubr
          229 174 70 -174 269 hlineto
          endchar
        </CharString>
        <CharString name="Euro">
          141 -15 86 127 90 84 90 167 86 hstem
          229 372 rmoveto
          324 90 -307 hlineto
          100 32 75 67 88 hhcurveto
          44 48 -15 -43 45 hvcurveto
          55 67 rlineto
          49 -51 -66 28 -75 hhcurveto
          -137 -120 -107 -146 -40 hvcurveto
          -77 -90 62 -22 hlineto
          -21 1 -21 3 -20 vhcurveto
          -66 -90 90 hlineto
          -126 51 107 -87 126 hhcurveto
          75 66 28 48 51 hvcurveto
          -55 67 rlineto
          -43 -45 -48 -14 -44 hhcurveto
          -76 -64 48 79 -39 hvcurveto
          291 90 -319 hlineto
          -4 20 -1 19 23 vvcurveto
          endchar
        </CharString>
        <CharString name="F">
          -29 21 -21 350 64 222 64 12 callsubr
          vstem
          445 414 rmoveto
          -269 222 311 64 -401 -700 90 350 269 hlineto
          endchar
        </CharString>
        <CharString name="G">
          168 -15 76 239 64 275 76 hstemhm
          60 90 313 224 -90 90 hintmask 11111000
          463 364 rmoveto
          -64 vlineto
          hintmask 11110100
          134 -175 hlineto
          -40 -47 -60 -24 -65 20 callsubr
          -23 callsubr
          -24 callsubr
          hvcurveto
          -43 callsubr
          -200 165 -165 200 75 68 22 39 59 hvcurveto
          23 15 18 16 19 19 rrcurveto
          268 vlineto
          endchar
        </CharString>
        <CharString name="H">
          143 21 -21 317 66 317 11 callsubr
          350 90 vstem
          526 -37 callsubr
          -317 -350 317 34 callsubr
          317 350 -317 90 700 vlineto
          endchar
        </CharString>
        <CharString name="I">
          -297 -35 callsubr
          86 90 vstem
          176 -13 callsubr
          endchar
        </CharString>
        <CharString name="Iacute">
          -291 -1 callsubr
          98 90 vstem
          188 -13 callsubr
          59 950 -81 callsubr
        </CharString>
        <CharString name="Icircumflex">
          -69 -1 callsubr
          200 90 vstem
          290 -13 callsubr
          24 817 -97 callsubr
        </CharString>
        <CharString name="Idieresis">
          -291 -57 callsubr
          178 92 hstemhm
          8 85 0 90 0 85 hintmask 11110100
          183 -10 callsubr
          hlineto
          hintmask 11101000
          90 hlineto
          hintmask 11110100
          -175 950 rmoveto
          -92 85 92 vlineto
          hintmask 11101000
          90 hmoveto
          -92 vlineto
          hintmask 11110100
          85 92 hlineto
          endchar
        </CharString>
        <CharString name="Igrave">
          -291 -1 callsubr
          96 90 vstem
          186 -13 callsubr
          -31 817 -72 callsubr
        </CharString>
        <CharString name="J">
          -216 -18 70 648 -20 hstemhm
          40 217 -90 90 hintmask 11010000
          167 -37 callsubr
          -466 vlineto
          hintmask 11100000
          -134 -24 -45 -103 -3 vhcurveto
          -70 vlineto
          198 3 19 56 287 vvcurveto
          372 vlineto
          endchar
        </CharString>
        <CharString name="K">
          103 -35 callsubr
          86 90 vstem
          176 hmoveto
          221 vlineto
          91 104 249 -325 rlineto
          106 hlineto
          -298 392 272 308 rlineto
          -100 hlineto
          -320 -366 rlineto
          366 -90 -700 vlineto
          endchar
        </CharString>
        <CharString name="L">
          -4 0 66 634 11 callsubr
          vstem
          176 700 rmoveto
          18 callsubr
        </CharString>
        <CharString name="Lslash">
          -13 0 66 634 -20 hstemhm
          24 161 -90 90 hintmask 11100000
          24 180 rmoveto
          353 151 rlineto
          90 vlineto
          -353 -151 rlineto
          161 430 rmoveto
          hintmask 11010000
          18 callsubr
        </CharString>
        <CharString name="M">
          213 -35 callsubr
          76 90 430 90 vstem
          346 308 rmoveto
          69 hlineto
          181 252 rlineto
          -560 90 700 -90 vlineto
          -215 -309 -215 309 rlineto
          34 callsubr
          559 hlineto
          endchar
        </CharString>
        <CharString name="N">
          124 -35 callsubr
          76 90 351 90 vstem
          607 0 callsubr
          -550 hlineto
          -351 550 rlineto
          34 callsubr
          551 hlineto
          351 -551 -59 callsubr
          endchar
        </CharString>
        <CharString name="Ntilde">
          124 -57 callsubr
          161 16 callsubr
          76 90 351 90 hintmask 11101100
          607 hmoveto
          -90 hlineto
          -351 551 rlineto
          -551 -90 700 90 vlineto
          351 -550 rlineto
          550 90 vlineto
          -354 141 -83 callsubr
        </CharString>
        <CharString name="O">
          -42 callsubr
          -100 callsubr
          endchar
        </CharString>
        <CharString name="OE">
          536 -15 79 286 64 225 61 -61 76 hstemhm
          60 90 445 90 hintmask 11101100
          1041 -71 callsubr
          -446 -29 hlineto
          -13 7 -14 6 -15 7 rrcurveto
          hintmask 11011100
          16 -36 -44 8 -53 hhcurveto
          -53 callsubr
          -55 callsubr
          53 44 8 15 36 hvcurveto
          42 19 rlineto
          hintmask 11101100
          -27 446 vlineto
          -510 616 rmoveto
          29 -13 21 -13 14 -12 rrcurveto
          -457 vlineto
          -15 -12 -21 -12 -28 -13 rrcurveto
          -15 -34 -37 -8 -40 hhcurveto
          -50 callsubr
          -54 callsubr
          40 37 -8 -15 34 hvcurveto
          endchar
        </CharString>
        <CharString name="Oacute">
          -96 callsubr
          419 600 -81 callsubr
        </CharString>
        <CharString name="Ocircumflex">
          -96 callsubr
          344 467 -97 callsubr
        </CharString>
        <CharString name="Odieresis">
          -42 callsubr
          143 92 hstem
          60 90 145 27 callsubr
          145 -106 callsubr
          145 600 -82 callsubr
        </CharString>
        <CharString name="Ograve">
          -96 callsubr
          249 467 -72 callsubr
        </CharString>
        <CharString name="Oslash">
          -42 callsubr
          hstem
          60 90 550 90 vstem
          -98 callsubr
          241 -262 rmoveto
          302 481 16 -15 rlineto
          51 -52 30 -72 -80 vvcurveto
          -51 callsubr
          -40 -37 8 15 -33 vhcurveto
          -160 266 rmoveto
          -54 callsubr
          40 37 -8 -15 34 vhcurveto
          3 -1 3 -2 3 -2 -302 -479 rcurveline
          -13 14 rlineto
          -48 52 -27 72 80 vvcurveto
          endchar
        </CharString>
        <CharString name="Otilde">
          -42 callsubr
          126 16 callsubr
          60 90 550 90 hintmask 11101100
          -107 callsubr
          187 491 -83 callsubr
        </CharString>
        <CharString name="P">
          71 21 -21 235 66 333 66 12 callsubr
          304 90 vstem
          328 235 rmoveto
          133 109 103 129 128 -109 105 -133 hvcurveto
          -242 -700 90 235 hlineto
          66 vmoveto
          333 152 vlineto
          84 68 -75 -92 -92 -68 -74 -84 hvcurveto
          endchar
        </CharString>
        <CharString name="Q">
          241 -114 -21 774 76 hstem
          60 90 500 90 vstem
          679 -59 rmoveto
          -204 53 rlineto
          152 37 113 146 173 vvcurveto
          200 -152 165 -188 -188 -152 -30 callsubr
          -166 100 -133 139 -51 vhcurveto
          380 -135 rlineto
          -529 485 rmoveto
          159 111 130 139 139 111 -34 callsubr
          -159 -111 -130 -139 -139 -111 -23 callsubr
          vhcurveto
          endchar
        </CharString>
        <CharString name="R">
          41 21 -21 255 66 313 66 12 callsubr
          284 90 vstem
          322 255 rmoveto
          148 -255 -59 callsubr
          -158 271 rlineto
          88 32 60 77 97 vvcurveto
          129 -109 94 -133 vhcurveto
          -222 -700 90 255 hlineto
          66 vmoveto
          313 132 vlineto
          84 68 -65 -92 -92 -68 -64 -84 hvcurveto
          endchar
        </CharString>
        <CharString name="S">
          -21 -40 callsubr
          hstem
          54 90 250 90 vstem
          54 -74 callsubr
          endchar
        </CharString>
        <CharString name="Scaron">
          -76 -40 callsubr
          1 callsubr
          28 90 250 90 vstem
          28 -74 callsubr
          178 707 -67 callsubr
        </CharString>
        <CharString name="T">
          -29 21 -21 634 66 hstem
          220 90 vstem
          10 -37 callsubr
          -66 210 -634 90 634 210 66 vlineto
          endchar
        </CharString>
        <CharString name="Thorn">
          44 21 -21 140 76 253 76 155 11 callsubr
          269 90 vstem
          176 140 rmoveto
          156 hlineto
          112 91 90 112 112 -91 91 -112 hvcurveto
          -156 155 34 callsubr
          hlineto
          216 vmoveto
          253 156 vlineto
          61 52 -58 -69 -69 -52 -57 -61 hvcurveto
          endchar
        </CharString>
        <CharString name="U">
          183 -15 83 632 -91 callsubr
          endchar
        </CharString>
        <CharString name="Uacute">
          -85 callsubr
          139 965 -81 callsubr
        </CharString>
        <CharString name="Ucircumflex">
          -85 callsubr
          64 832 -97 callsubr
        </CharString>
        <CharString name="Udieresis">
          183 -15 83 632 -20 178 92 12 callsubr
          65 27 callsubr
          75 -95 callsubr
          -135 965 -82 callsubr
        </CharString>
        <CharString name="Ugrave">
          -85 callsubr
          -31 832 -72 callsubr
        </CharString>
        <CharString name="V">
          105 -35 callsubr
          624 0 callsubr
          hlineto
          -202 -583 -203 583 rlineto
          -89 hlineto
          247 -46 callsubr
          endchar
        </CharString>
        <CharString name="W">
          423 -35 callsubr
          942 0 callsubr
          hlineto
          -155 -567 -155 567 rlineto
          -89 hlineto
          -169 -567 -154 567 2 callsubr
          199 -46 callsubr
          169 566 154 -566 -59 callsubr
          endchar
        </CharString>
        <CharString name="X">
          98 -35 callsubr
          508 -37 callsubr
          -180 -270 -179 270 rlineto
          -109 hlineto
          234 -351 -234 -349 rlineto
          110 hlineto
          178 267 179 -267 rlineto
          110 hlineto
          -107 158 -68 103 -59 88 234 351 rcurveline
          endchar
        </CharString>
        <CharString name="Y">
          72 21 -21 700 -48 callsubr
          endchar
        </CharString>
        <CharString name="Yacute">
          72 21 -21 700 -20 270 -48 callsubr
          -52 250 -81 callsubr
        </CharString>
        <CharString name="Ydieresis">
          72 -57 callsubr
          178 92 hstemhm
          185 85 -2 84 8 85 hintmask 11101100
          -63 callsubr
          hintmask 11110100
          -316 250 -82 callsubr
        </CharString>
        <CharString name="Z">
          36 33 callsubr
          -22 callsubr
          endchar
        </CharString>
        <CharString name="Zcaron">
          36 33 callsubr
          250 -20 -22 callsubr
          -145 218 -67 callsubr
        </CharString>
        <CharString name="_0000">
          -559 endchar
        </CharString>
        <CharString name="a">
          -62 callsubr
          -11 callsubr
          hintmask 10111100
          -90 callsubr
          hintmask 01111100
          -103 callsubr
          hintmask 10111100
          -94 callsubr
          endchar
        </CharString>
        <CharString name="aacute">
          -99 callsubr
          186 693 -81 callsubr
        </CharString>
        <CharString name="acircumflex">
          -99 callsubr
          105 560 -97 callsubr
        </CharString>
        <CharString name="acute">
          -238 -6 callsubr
          257 750 -81 callsubr
        </CharString>
        <CharString name="adieresis">
          -62 callsubr
          143 92 hstemhm
          54 87 -6 27 callsubr
          -22 86 hintmask 1011110100000000
          -90 callsubr
          hintmask 0111110010000000
          -103 callsubr
          hintmask 1011110010000000
          -94 callsubr
          hintmask 1011101100000000
          -94 693 -82 callsubr
        </CharString>
        <CharString name="ae">
          323 -56 callsubr
          -90 callsubr
          14 -49 rlineto
          63 42 hlineto
          17 -14 19 -12 23 -10 -52 callsubr
          -35 -31 -6 -13 -29 vhcurveto
          -27 -11 -23 -16 -20 -21 rrcurveto
          37 -19 -36 30 -67 hhcurveto
          -35 -52 -4 -4 -44 hvcurveto
          -93 callsubr
          -94 callsubr
          233 229 -65 callsubr
          endchar
        </CharString>
        <CharString name="agrave">
          -99 callsubr
          45 560 -72 callsubr
        </CharString>
        <CharString name="ampersand">
          83 -15 90 -54 -21 635 80 hstemhm
          26 90 -20 90 138 90 hintmask 10101100
          496 150 rmoveto
          32 55 17 57 68 vvcurveto
          -90 hlineto
          -37 -10 -36 -15 -35 vhcurveto
          -129 148 rlineto
          58 48 55 59 81 vvcurveto
          -1 29 -7 26 -12 23 rrcurveto
          39 -21 -40 40 -82 hhcurveto
          -155 0 -141 -16 -71 27 -51 51 -55 hvcurveto
          hintmask 10110100
          -75 -51 -73 -62 -95 vvcurveto
          -103 88 -85 125 76 63 30 59 60 vhcurveto
          hintmask 01110100
          64 -74 rlineto
          128 hlineto
          -514 181 rmoveto
          52 48 39 64 45 vhcurveto
          150 -173 rlineto
          hintmask 10110100
          -43 -41 -43 -26 -53 hhcurveto
          -75 -50 53 53 hvcurveto
          208 384 rmoveto
          -55 -33 -41 -43 -35 vhcurveto
          hintmask 10101100
          -39 48 -23 40 43 vvcurveto
          1 13 2 11 5 11 rrcurveto
          17 8 17 18 35 hhcurveto
          35 17 -18 -17 9 hvcurveto
          5 -11 3 -11 1 -13 rrcurveto
          endchar
        </CharString>
        <CharString name="aring">
          -62 callsubr
          71 40 84 40 hstemhm
          54 87 62 40 84 40 6 86 hintmask 1011111111000000
          -90 callsubr
          hintmask 0111111111000000
          -103 callsubr
          hintmask 1011111111000000
          -94 callsubr
          -26 611 -68 callsubr
        </CharString>
        <CharString name="asterisk">
          -102 329 -21 407 -20 hstem
          189 78 vstem
          443 533 rmoveto
          -7 23 -10 26 -7 24 -152 -51 rcurveline
          160 -78 -160 vlineto
          -149 51 -7 -24 -11 -26 -7 -23 rlinecurve
          48 -17 55 -19 47 -15 -94 -128 rcurveline
          64 -46 31 43 32 44 31 41 rlinecurve
          93 -128 23 15 19 14 21 17 rlinecurve
          -93 128 rlineto
          endchar
        </CharString>
        <CharString name="at">
          234 -130 73 22 73 -21 61 298 62 89 73 hstemhm
          27 90 77 66 225 69 123 90 hintmask 1101111110000000
          492 -43 rmoveto
          -9 -3 -10 -2 -11 -2 rrcurveto
          -4 -19 -24 -3 -27 20 callsubr
          131 161 161 134 131 151 152 123 -131 -161 -135 -16 -62 -53 -29 -25 40 88 hvcurveto
          226 vlineto
          -10 8 -12 8 -13 7 rrcurveto
          11 -23 -35 12 -48 hhcurveto
          -148 -71 -111 -106 hvcurveto
          hintmask 1011111110000000
          -102 65 -102 112 43 32 15 15 20 vhcurveto
          12 9 10 10 7 12 rrcurveto
          hintmask 1101111110000000
          -81 21 40 -32 52 hhcurveto
          85 74 98 172 200 -165 165 -200 -200 -175 -30 callsubr
          -200 165 -165 200 37 29 3 4 19 hvcurveto
          11 2 10 2 8 3 rrcurveto
          -21 240 rmoveto
          hintmask 1011111110000000
          -32 -31 -46 -14 -32 hhcurveto
          -72 -44 70 71 77 51 80 105 24 17 -5 -4 11 hvcurveto
          7 -3 5 -2 5 -3 rrcurveto
          endchar
        </CharString>
        <CharString name="atilde">
          -62 callsubr
          126 70 -31 70 -11 callsubr
          hintmask 10111011
          -90 callsubr
          hintmask 01111011
          -103 callsubr
          hintmask 10111011
          -94 callsubr
          -52 584 rmoveto
          hintmask 10110111
          -60 callsubr
          hintmask 10111011
          -26 callsubr
          hintmask 10110111
          -41 callsubr
          hintmask 10111011
          -61 callsubr
          hintmask 10110111
          -25 callsubr
          hintmask 10111011
          -28 callsubr
        </CharString>
        <CharString name="b">
          3 0 77 361 77 1 callsubr
          70 83 270 85 vstem
          224 hmoveto
          201 83 97 171 115 -56 132 -153 -47 -56 -12 -15 -43 hvcurveto
          262 -83 -750 vlineto
          228 438 rmoveto
          93 32 -91 -76 -135 -56 -59 -143 hvcurveto
          -71 337 hlineto
          16 40 73 8 32 hhcurveto
          endchar
        </CharString>
        <CharString name="backslash">
          -280 -35 callsubr
          7 -37 callsubr
          175 -46 callsubr
          -175 26 callsubr
          endchar
        </CharString>
        <CharString name="bar">
          -393 -229 -21 1000 -20 hstem
          39 90 vstem
          129 750 rmoveto
          -90 -1000 90 hlineto
          endchar
        </CharString>
        <CharString name="braceleft">
          -241 14 callsubr
          104 90 -90 190 hintmask 11010100
          7 219 rmoveto
          101 1 -116 -203 -5 hvcurveto
          -138 110 -15 80 3 vhcurveto
          90 vlineto
          hintmask 10111000
          -53 -47 2 88 180 -20 140 -100 100 20 140 180 hvcurveto
          hintmask 10110100
          88 47 2 53 vhcurveto
          90 vlineto
          -80 3 -110 -15 -138 vvcurveto
          -203 5 -1 -116 -101 hhcurveto
          endchar
        </CharString>
        <CharString name="braceright">
          -240 14 callsubr
          25 190 -90 90 hintmask 10111000
          312 281 rmoveto
          -101 -1 116 203 5 hvcurveto
          138 -110 15 -80 -3 vhcurveto
          -90 vlineto
          hintmask 11010100
          53 47 -2 -88 -180 0 -140 100 -100 0 -140 -180 hvcurveto
          hintmask 11011000
          -88 -47 -2 -53 vhcurveto
          -90 vlineto
          80 -3 110 15 138 vvcurveto
          203 -5 1 116 101 hhcurveto
          hintmask 10111000
          62 vlineto
          endchar
        </CharString>
        <CharString name="bracketleft">
          29 callsubr
          39 90 vstem
          303 -110 rmoveto
          -174 720 174 90 -264 -900 264 hlineto
          endchar
        </CharString>
        <CharString name="bracketright">
          29 callsubr
          190 90 vstem
          16 -200 rmoveto
          264 900 -264 -90 174 -720 -174 hlineto
          endchar
        </CharString>
        <CharString name="bullet">
          -209 234 246 hstem
          49 246 vstem
          49 357 rmoveto
          -68 55 -55 68 68 55 55 68 68 -55 55 -68 -68 -55 -55 -68 vhcurveto
          endchar
        </CharString>
        <CharString name="c">
          -57 -39 callsubr
          hstem
          54 82 vstem
          136 -33 callsubr
          -146 118 -119 145 -17 callsubr
        </CharString>
        <CharString name="caron">
          -143 -6 callsubr
          208 652 -67 callsubr
        </CharString>
        <CharString name="ccedilla">
          -101 -213 58 80 136 -76 76 378 76 hstemhm
          23 82 155 76 hintmask 11011100
          105 -33 callsubr
          -110 66 -92 95 -42 hvcurveto
          10 -5 -16 -76 rlineto
          -47 callsubr
          rlineto
          hintmask 10111100
          -1 6 6 0 6 hhcurveto
          -17 callsubr
        </CharString>
        <CharString name="cedilla">
          -284 -213 58 80 80 hstem
          164 76 vstem
          82 -75 rmoveto
          61 21 -15 -27 -31 -27 -7 -15 callsubr
          19 16 -2 19 hhcurveto
          77 63 32 64 47 -35 21 -39 7 hvcurveto
          11 47 rlineto
          -78 hlineto
          endchar
        </CharString>
        <CharString name="cent">
          -101 -78 -21 710 -20 hstemhm
          23 82 129 70 -70 187 hintmask 11110000
          234 611 rmoveto
          -102 vlineto
          -120 -24 -91 -107 -128 vvcurveto
          -128 91 -107 120 -24 vhcurveto
          -90 70 84 vlineto
          hintmask 11101000
          39 1 39 6 39 8 rrcurveto
          76 vlineto
          hintmask 11110000
          -39 -9 -39 -5 -39 -1 rrcurveto
          378 vlineto
          hintmask 11101000
          39 -1 39 -6 39 -8 rrcurveto
          76 vlineto
          hintmask 11110000
          -39 8 -39 6 -39 1 rrcurveto
          96 vlineto
          -199 -361 rmoveto
          85 54 72 75 24 vhcurveto
          -362 vlineto
          -74 24 -55 71 86 vvcurveto
          endchar
        </CharString>
        <CharString name="circumflex">
          -141 -6 callsubr
          277 617 -97 callsubr
        </CharString>
        <CharString name="colon">
          -274 0 107 226 107 hstem
          93 100 vstem
          93 107 19 callsubr
          -100 333 19 callsubr
          endchar
        </CharString>
        <CharString name="comma">
          -274 -123 230 hstem
          112 107 13 callsubr
        </CharString>
        <CharString name="copyright">
          79 291 61 41 31 151 30 49 61 hstemhm
          107 65 48 32 -32 159 85 66 hintmask 11111101
          -58 callsubr
          80 -4 rmoveto
          42 33 34 39 vhcurveto
          hintmask 11111011
          19 18 -2 -4 18 hvcurveto
          30 vlineto
          4 -18 -18 2 -19 hhcurveto
          -58 -46 -46 -60 -58 46 -48 58 19 18 2 4 18 hvcurveto
          30 vlineto
          -3 -18 -18 -2 -19 hhcurveto
          hintmask 11111101
          -39 -33 34 41 hvcurveto
          endchar
        </CharString>
        <CharString name="d">
          4 -15 77 -41 -21 443 72 4 callsubr
          hstemhm
          54 85 269 85 hintmask 10111100
          267 515 rmoveto
          -145 -68 -122 -126 -154 97 -128 125 53 52 21 31 40 hvcurveto
          hintmask 01111100
          12 -37 rlineto
          60 750 -85 -274 hlineto
          21 -37 -48 18 -56 hhcurveto
          hintmask 10111100
          22 -453 rmoveto
          -90 -60 100 113 108 56 60 79 56 46 -19 -19 32 hvcurveto
          -305 vlineto
          -21 -31 -48 -17 -40 hhcurveto
          endchar
        </CharString>
        <CharString name="degree">
          -289 459 37 142 37 hstem
          28 39 136 40 vstem
          28 567 rmoveto
          -59 43 -49 64 64 44 49 59 59 -44 49 -64 -64 -43 -49 -59 vhcurveto
          39 hmoveto
          39 25 32 43 43 25 -32 -39 -39 -25 -32 -43 -43 -25 32 39 vhcurveto
          endchar
        </CharString>
        <CharString name="dieresis">
          -219 658 92 hstem
          39 27 callsubr
          vstem
          39 750 -82 callsubr
        </CharString>
        <CharString name="dollar">
          -93 -69 -21 850 -20 hstem
          18 90 94 70 86 90 vstem
          272 -9 rmoveto
          96 21 80 74 96 vvcurveto
          115 -74 42 -102 57 vhcurveto
          239 vlineto
          31 -7 29 -14 21 -12 12 -7 11 -8 11 -8 34 74 rcurveline
          -12 9 -14 9 -15 8 -27 15 -36 12 -45 7 rrcurveto
          47 -70 -48 vlineto
          -97 -13 -87 -63 -96 vvcurveto
          -101 93 -44 91 -48 vhcurveto
          -285 vlineto
          -35 5 -38 22 -28 19 -17 11 -16 13 -15 13 -35 -75 rcurveline
          15 -14 16 -13 19 -12 32 -20 46 -22 56 -3 rrcurveto
          -76 70 vlineto
          86 272 rmoveto
          -55 -37 -40 -49 -17 vhcurveto
          238 vlineto
          49 -32 37 -38 -56 vvcurveto
          -250 358 rmoveto
          53 43 31 51 11 vhcurveto
          -201 vlineto
          -44 23 -50 33 50 vvcurveto
          endchar
        </CharString>
        <CharString name="dotaccent">
          -325 640 110 hstem
          67 110 vstem
          67 695 rmoveto
          -30 25 -25 30 30 25 25 30 30 -25 25 -30 -30 -25 -25 -30 vhcurveto
          endchar
        </CharString>
        <CharString name="dotlessi">
          -29 callsubr
          hstem
          86 85 vstem
          86 -49 callsubr
          endchar
        </CharString>
        <CharString name="e">
          -105 callsubr
          endchar
        </CharString>
        <CharString name="eacute">
          -105 callsubr
          17 464 -81 callsubr
        </CharString>
        <CharString name="ecircumflex">
          -105 callsubr
          -65 331 -97 callsubr
        </CharString>
        <CharString name="edieresis">
          -105 callsubr
          -264 464 -82 callsubr
        </CharString>
        <CharString name="egrave">
          -105 callsubr
          -163 331 -72 callsubr
        </CharString>
        <CharString name="eight">
          61 -15 73 301 73 215 68 hstemhm
          69 90 -48 48 -48 90 220 90 -48 48 -48 89 hintmask 1110101000000000
          311 715 rmoveto
          -138 -62 -85 -85 -58 34 -75 67 -16 hvcurveto
          hintmask 1111000010000000
          -88 -21 -55 -85 -92 vvcurveto
          -99 64 -114 178 179 62 114 99 92 -54 85 -88 21 vhcurveto
          hintmask 1111000100000000
          65 16 36 75 58 vvcurveto
          85 -63 85 -137 vhcurveto
          -356 vmoveto
          100 52 -61 -100 -100 -60 -40 -92 -92 -60 39 101 100 52 61 100 hvcurveto
          288 vmoveto
          hintmask 1110011000000000
          86 24 -62 -48 -56 -36 -49 -74 -74 -36 49 56 48 24 62 86 hvcurveto
          endchar
        </CharString>
        <CharString name="emdash">
          205 31 callsubr
          686 90 -686 hlineto
          endchar
        </CharString>
        <CharString name="endash">
          32 31 callsubr
          513 90 -513 hlineto
          endchar
        </CharString>
        <CharString name="equal">
          -21 178 90 124 90 hstem
          39 178 rmoveto
          460 90 -460 hlineto
          124 vmoveto
          460 90 -460 hlineto
          endchar
        </CharString>
        <CharString name="eth">
          30 -39 callsubr
          210 -20 hstem
          40 80 340 80 vstem
          143 590 rmoveto
          30 -54 129 72 52 -31 41 -40 27 -63 rlinecurve
          27 -39 -45 14 -48 hhcurveto
          -139 -111 -18 callsubr
          -146 111 -119 139 139 111 119 146 153 -41 151 -127 93 hvcurveto
          43 24 -30 54 -75 -42 -31 15 -34 14 -36 13 rlinecurve
          -52 -54 28 -9 26 -9 25 -11 rlinecurve
          -116 -392 rmoveto
          104 77 85 93 93 72 -82 -99 5 vhcurveto
          -8 vlineto
          -104 -77 -85 -93 -93 -77 85 104 vhcurveto
          endchar
        </CharString>
        <CharString name="exclam">
          -259 0 100 600 -20 hstem
          100 100 vstem
          200 -37 callsubr
          -100 -499 100 hlineto
          -101 vmoveto
          -100 -100 100 hlineto
          endchar
        </CharString>
        <CharString name="exclamdown">
          -259 -79 -21 600 100 hstem
          100 100 vstem
          200 399 rmoveto
          -100 -499 100 hlineto
          700 vmoveto
          -100 -100 100 hlineto
          endchar
        </CharString>
        <CharString name="f">
          -133 8 callsubr
          hstemhm
          132 85 -85 248 hintmask 11110000
          217 hmoveto
          7 callsubr
          hintmask 11101000
          -12 callsubr
          endchar
        </CharString>
        <CharString name="fi">
          -37 8 callsubr
          hstemhm
          98 85 -85 248 58 85 hintmask 11110100
          183 -20 callsubr
          74 vlineto
          21 callsubr
          hintmask 11101100
          -12 callsubr
          hintmask 11110100
          85 423 221 -423 85 500 hlineto
          -85 173 rmoveto
          85 77 -85 hlineto
          endchar
        </CharString>
        <CharString name="five">
          61 -15 77 346 76 150 66 hstem
          110 96 237 93 vstem
          110 -37 callsubr
          -292 122 vlineto
          153 58 -82 -100 -129 -98 -35 -83 -43 -38 7 7 -29 hvcurveto
          -17 4 -16 5 -15 5 -20 -78 rcurveline
          12 -5 15 -5 17 -4 rrcurveto
          -7 29 41 -6 56 hhcurveto
          181 101 92 149 161 -101 96 -201 1 hvcurveto
          -28 150 270 66 hlineto
          endchar
        </CharString>
        <CharString name="fl">
          -31 8 callsubr
          hstem
          98 85 221 85 vstem
          223 750 rmoveto
          -19 callsubr
          85 7 callsubr
          136 -673 85 750 hlineto
          endchar
        </CharString>
        <CharString name="florin">
          -67 -250 77 596 77 173 77 hstemhm
          49 249 -84 218 hintmask 11101000
          214 -74 rmoveto
          -72 -15 -27 -72 vhcurveto
          hintmask 11110000
          -78 -77 123 hlineto
          67 53 46 76 5 hvcurveto
          3 551 rlineto
          hintmask 11101000
          132 hlineto
          1 77 rlineto
          -132 hlineto
          1 74 rlineto
          21 callsubr
          48 77 -93 hlineto
          -68 -57 -51 -80 hvcurveto
          -1 -119 rlineto
          -78 -77 77 hlineto
          -1 -497 rlineto
          endchar
        </CharString>
        <CharString name="four">
          61 21 -21 159 64 477 -20 hstem
          370 90 vstem
          75 223 rmoveto
          -64 295 -159 90 159 85 64 -85 477 -90 vlineto
          -198 -477 rmoveto
          198 341 rlineto
          -341 vlineto
          endchar
        </CharString>
        <CharString name="fraction">
          17 -7 -21 728 -20 hstem
          483 -37 callsubr
          -480 -728 -59 callsubr
          480 728 rlineto
          endchar
        </CharString>
        <CharString name="g">
          20 -250 76 159 72 390 68 -15 -20 hstemhm
          70 83 264 84 hintmask 11101100
          308 57 rmoveto
          -123 -32 104 93 125 58 68 83 43 47 -17 -15 33 hvcurveto
          -333 vlineto
          -16 -29 -43 -9 -37 hhcurveto
          -221 -249 rmoveto
          -39 73 62 -19 80 hhcurveto
          135 64 69 111 hvcurveto
          hintmask 11011100
          570 -54 vlineto
          -14 -29 rlineto
          hintmask 11101100
          21 -43 -47 23 -61 hhcurveto
          -144 -68 -134 -133 -139 74 -124 152 43 41 14 20 37 hvcurveto
          -89 vlineto
          -64 -31 -40 -84 -64 -48 15 32 -60 vhcurveto
          endchar
        </CharString>
        <CharString name="grave">
          -261 -6 callsubr
          157 617 -72 callsubr
        </CharString>
        <CharString name="greater">
          -43 109 -21 506 -20 hstem
          442 340 rmoveto
          -403 -162 rlineto
          -90 vlineto
          473 193 rlineto
          118 vlineto
          -473 195 rlineto
          -90 vlineto
          endchar
        </CharString>
        <CharString name="h">
          14 21 -21 436 79 1 callsubr
          74 83 253 85 vstem
          74 750 rmoveto
          -750 83 382 vlineto
          32 48 47 22 57 hhcurveto
          56 45 -21 -61 hvcurveto
          -354 85 354 vlineto
          101 -77 60 -99 -60 -54 -21 -29 -48 vhcurveto
          285 vlineto
          endchar
        </CharString>
        <CharString name="hyphen">
          -181 178 90 hstem
          39 178 rmoveto
          300 90 -300 hlineto
          endchar
        </CharString>
        <CharString name="i">
          -29 callsubr
          143 77 hstem
          80 85 vstem
          80 -49 callsubr
          -85 123 rmoveto
          85 77 -85 hlineto
          endchar
        </CharString>
        <CharString name="iacute">
          -14 callsubr
          88 85 vstem
          88 -49 callsubr
          81 250 -81 callsubr
        </CharString>
        <CharString name="icircumflex">
          -14 callsubr
          92 85 vstem
          92 -49 callsubr
          26 117 -97 callsubr
        </CharString>
        <CharString name="idieresis">
          -29 callsubr
          178 92 hstem
          6 85 3 85 2 85 vstem
          94 -49 callsubr
          -173 250 -82 callsubr
        </CharString>
        <CharString name="igrave">
          -14 callsubr
          85 85 vstem
          85 -49 callsubr
          -49 117 -72 callsubr
        </CharString>
        <CharString name="j">
          -275 22 callsubr
          143 77 hstemhm
          70 144 -83 83 hintmask 11110000
          131 623 rmoveto
          83 77 hlineto
          hintmask 11101000
          -83 hlineto
          -791 vmoveto
          hintmask 11110000
          -49 -29 -34 -32 vhcurveto
          -76 vlineto
          77 67 65 94 hvcurveto
          591 vlineto
          hintmask 11101000
          -83 hlineto
          endchar
        </CharString>
        <CharString name="k">
          -10 -4 callsubr
          270 -20 hstem
          74 83 vstem
          343 -20 callsubr
          -60 -65 -63 -65 -63 -65 rrcurveto
          445 -83 -750 83 188 vlineto
          23 25 22 21 23 25 174 -259 rcurveline
          104 hlineto
          -219 320 173 180 rlineto
          endchar
        </CharString>
        <CharString name="l">
          -314 21 24 callsubr
          hstem
          74 85 vstem
          74 750 30 callsubr
        </CharString>
        <CharString name="less">
          -44 109 -21 506 -20 hstem
          477 504 rmoveto
          90 vlineto
          -473 -195 rlineto
          -118 vlineto
          473 -193 rlineto
          90 vlineto
          -403 162 rlineto
          endchar
        </CharString>
        <CharString name="logicalnot">
          -11 172 219 -90 90 hstemhm
          397 101 hintmask 01100000
          8 301 rmoveto
          389 hlineto
          hintmask 10100000
          -129 101 219 -490 vlineto
          endchar
        </CharString>
        <CharString name="lslash">
          -165 21 24 callsubr
          hstemhm
          33 200 -85 85 -85 198 hintmask 11100000
          33 180 rmoveto
          hintmask 11001000
          313 151 rlineto
          90 vlineto
          hintmask 11100000
          -313 -151 rlineto
          hintmask 11010000
          115 480 30 callsubr
        </CharString>
        <CharString name="m">
          215 15 callsubr
          hstemhm
          70 83 183 85 182 85 hintmask 10111100
          70 -38 callsubr
          83 404 vlineto
          hintmask 11011100
          23 27 32 6 callsubr
          22 27 31 6 callsubr
          73 -90 37 -69 -49 -43 -17 -35 -39 vhcurveto
          35 -31 -58 17 -48 hhcurveto
          -44 -40 -15 -29 -37 hvcurveto
          hintmask 10111100
          -10 29 rlineto
          endchar
        </CharString>
        <CharString name="minus">
          -107 301 90 hstem
          8 301 rmoveto
          32 callsubr
        </CharString>
        <CharString name="n">
          10 15 callsubr
          hstemhm
          70 83 253 85 hintmask 10111000
          70 -38 callsubr
          83 386 vlineto
          hintmask 11011000
          -31 callsubr
          hintmask 10111000
          -13 38 rlineto
          endchar
        </CharString>
        <CharString name="nine">
          61 -15 76 171 80 327 76 hstemhm
          66 90 297 101 -89 89 hintmask 11110100
          110 20 rmoveto
          14 -7 16 -6 17 -5 rrcurveto
          -9 31 40 -8 48 hhcurveto
          176 102 121 255 232 -93 122 -153 -127 -115 -79 -173 -143 79 -88 145 88 62 39 51 25 hvcurveto
          -148 -77 -113 -112 -31 -34 7 7 -27 vhcurveto
          -16 4 -15 5 -14 6 rrcurveto
          163 549 rmoveto
          hintmask 11111000
          85 66 -73 -99 -118 -99 -37 -60 -81 -57 55 99 112 59 61 87 hvcurveto
          endchar
        </CharString>
        <CharString name="ntilde">
          -63 15 callsubr
          161 16 callsubr
          39 83 253 85 hintmask 10110110
          39 -38 callsubr
          83 386 vlineto
          hintmask 11010110
          -31 callsubr
          hintmask 10110110
          -13 38 rlineto
          58 141 rmoveto
          hintmask 11001110
          -60 callsubr
          hintmask 11010110
          -26 callsubr
          hintmask 11001110
          -41 callsubr
          hintmask 11010110
          -61 callsubr
          hintmask 11001110
          -25 callsubr
          hintmask 11010110
          -28 callsubr
        </CharString>
        <CharString name="numbersign">
          82 0 230 -60 60 240 60 -60 230 hstemhm
          hintmask 10100000
          20 530 rmoveto
          -60 137 vlineto
          -39 -240 rlineto
          -98 hlineto
          hintmask 01100000
          -60 88 vlineto
          5 callsubr
          210 hlineto
          5 callsubr
          142 60 -132 hlineto
          39 240 rlineto
          93 60 -83 3 callsubr
          -210 3 callsubr
          70 -60 rmoveto
          210 hlineto
          -39 -240 rlineto
          -210 hlineto
          endchar
        </CharString>
        <CharString name="o">
          10 callsubr
          hstem
          54 81 366 -86 callsubr
          endchar
        </CharString>
        <CharString name="oacute">
          -66 callsubr
          292 500 -81 callsubr
        </CharString>
        <CharString name="ocircumflex">
          78 28 callsubr
          54 81 366 -86 callsubr
          252 367 -97 callsubr
        </CharString>
        <CharString name="odieresis">
          10 callsubr
          143 92 hstem
          54 81 53 27 callsubr
          53 -86 callsubr
          53 500 -82 callsubr
        </CharString>
        <CharString name="oe">
          377 -56 callsubr
          506 60 rmoveto
          20 -23 26 -18 31 -13 -52 callsubr
          -69 -59 -26 -45 -41 vhcurveto
          -1 -2 -7 7 rlineto
          32 -31 -69 34 -79 hhcurveto
          -158 -106 -18 callsubr
          -146 106 -119 158 39 36 7 14 32 hvcurveto
          33 14 23 14 15 15 rrcurveto
          -55 203 rmoveto
          -36 5 -34 9 -32 vhcurveto
          2 -7 2 -6 3 -7 -5 -6 -4 -6 -5 -5 rrcurveto
          -29 -27 -47 -23 -56 hhcurveto
          -113 -70 85 104 104 70 85 113 56 47 -23 -29 27 hvcurveto
          5 -5 4 -6 4 -5 -3 -10 rcurveline
          -11 -33 -6 -36 -40 vvcurveto
          86 34 -65 callsubr
          endchar
        </CharString>
        <CharString name="ograve">
          -66 callsubr
          192 367 -72 callsubr
        </CharString>
        <CharString name="one">
          61 -57 callsubr
          hstemhm
          170 211 -90 90 hintmask 11100000
          170 670 rmoveto
          -70 vlineto
          hintmask 11010000
          121 17 rlineto
          -617 90 700 vlineto
          endchar
        </CharString>
        <CharString name="onesuperior">
          -422 415 -21 284 -20 hstem
          57 43 vstem
          8 665 rmoveto
          -35 vlineto
          49 7 rlineto
          -243 43 284 vlineto
          endchar
        </CharString>
        <CharString name="ordfeminine">
          -338 464 34 67 35 40 38 hstem
          27 41 77 40 vstem
          99 600 rmoveto
          -48 -24 -30 -36 -32 18 -38 45 20 21 8 12 18 hvcurveto
          5 -16 rlineto
          31 154 hlineto
          25 -13 31 -42 -30 -52 -6 0 vhcurveto
          -39 vlineto
          0 50 7 19 21 7 -9 -21 vhcurveto
          -10 vlineto
          -50 -102 rmoveto
          -21 -6 22 14 16 7 15 24 hvcurveto
          46 -50 hlineto
          -9 -13 -21 -8 -16 hhcurveto
          endchar
        </CharString>
        <CharString name="oslash">
          10 callsubr
          hstem
          54 81 366 82 vstem
          54 -102 callsubr
          21 20 -3 -6 19 vhcurveto
          -185 -324 -9 10 rlineto
          -32 35 -17 47 52 vvcurveto
          183 -189 rmoveto
          -20 -19 2 5 -17 hvcurveto
          183 322 6 -7 rlineto
          32 -33 18 -48 -52 vvcurveto
          -104 -71 -85 -112 vhcurveto
          endchar
        </CharString>
        <CharString name="otilde">
          10 callsubr
          126 16 callsubr
          54 81 366 82 hintmask 11101100
          54 -104 callsubr
          95 391 -83 callsubr
        </CharString>
        <CharString name="p">
          9 -229 -21 235 72 390 68 -15 -20 hstemhm
          74 83 273 84 hintmask 11011100
          74 -20 callsubr
          -750 83 268 vlineto
          -20 39 47 -13 49 hhcurveto
          148 74 124 144 hvcurveto
          hintmask 11101100
          126 -68 136 -145 -60 -57 -22 -21 -43 vhcurveto
          hintmask 11011100
          -13 28 rlineto
          150 -443 rmoveto
          -40 -50 9 16 -31 hvcurveto
          333 vlineto
          hintmask 11101100
          15 36 50 17 51 hhcurveto
          77 59 -76 -109 -103 -32 -102 -120 hvcurveto
          endchar
        </CharString>
        <CharString name="parenleft">
          -263 -179 -21 900 -20 hstem
          14 81 vstem
          198 -37 callsubr
          -125 -149 -59 -147 -149 vvcurveto
          -153 63 -149 121 -153 vhcurveto
          80 hlineto
          -116 152 -67 149 152 vvcurveto
          149 66 149 117 149 vhcurveto
          endchar
        </CharString>
        <CharString name="parenright">
          -264 -179 -21 900 -20 hstem
          200 81 vstem
          17 -37 callsubr
          117 -149 66 -149 -149 vvcurveto
          -152 -67 -149 -116 -152 vhcurveto
          80 hlineto
          121 153 63 149 153 vvcurveto
          149 -59 147 -125 149 vhcurveto
          endchar
        </CharString>
        <CharString name="percent">
          75 -15 60 -24 -21 208 -16 callsubr
          hintmask 0111011111000000
          75 hmoveto
          90 hlineto
          387 700 2 callsubr
          -437 -127 rmoveto
          -27 callsubr
          vhcurveto
          hintmask 1011101111000000
          -77 callsubr
          252 -447 rmoveto
          -75 callsubr
          endchar
        </CharString>
        <CharString name="period">
          -274 0 107 hstem
          92 100 vstem
          92 107 19 callsubr
          endchar
        </CharString>
        <CharString name="perthousand">
          420 -15 60 -52 -21 236 -16 callsubr
          62 60 151 60 hintmask 1011101111110000
          25 573 rmoveto
          -75 callsubr
          252 -447 rmoveto
          -75 callsubr
          273 hmoveto
          -75 callsubr
          hintmask 0111011111110000
          -247 574 rmoveto
          -480 -728 -59 callsubr
          480 728 rlineto
          endchar
        </CharString>
        <CharString name="plus">
          -123 167 -21 155 -44 callsubr
          endchar
        </CharString>
        <CharString name="plusminus">
          -112 0 90 211 -44 callsubr
          -391 vmoveto
          32 callsubr
        </CharString>
        <CharString name="q">
          14 -229 -21 240 77 371 77 hstem
          54 83 281 85 vstem
          336 515 rmoveto
          -200 -82 -139 -139 -116 81 -131 143 49 49 11 15 43 hvcurveto
          -266 84 745 vlineto
          -19 4 -20 3 -19 3 rrcurveto
          5 -33 -41 5 -35 hhcurveto
          82 -416 rmoveto
          -15 -39 -56 -17 -45 hhcurveto
          -85 -56 90 80 101 59 100 140 13 21 -2 -3 17 hvcurveto
          31 -4 rlineto
          endchar
        </CharString>
        <CharString name="question">
          -79 0 90 552 73 hstem
          177 90 91 90 vstem
          267 168 rmoveto
          117 181 42 185 vvcurveto
          79 -61 124 -161 -69 -77 -21 -35 -48 vhcurveto
          52 -60 rlineto
          27 37 56 16 49 hhcurveto
          96 36 -78 -52 -77 -44 -46 -37 -40 hvcurveto
          -53 -56 -47 -49 -76 vvcurveto
          90 -78 rmoveto
          -90 -90 90 hlineto
          endchar
        </CharString>
        <CharString name="questiondown">
          -79 -115 73 552 90 hstem
          32 90 91 90 vstem
          213 432 rmoveto
          -117 -181 -42 -185 vvcurveto
          -79 61 -124 161 69 77 21 35 48 vhcurveto
          -52 60 rlineto
          -27 -37 -56 -16 -49 hhcurveto
          -96 -36 78 52 77 44 46 37 40 hvcurveto
          53 56 47 49 76 vvcurveto
          -90 78 rmoveto
          90 90 -90 hlineto
          endchar
        </CharString>
        <CharString name="quotedbl">
          -79 -5 callsubr
          145 70 50 70 vstem
          220 770 rmoveto
          -80 hlineto
          10 -3 callsubr
          130 179 rmoveto
          -80 hlineto
          10 -3 callsubr
          endchar
        </CharString>
        <CharString name="quotedblleft">
          -258 -5 callsubr
          69 591 -2 callsubr
          178 -179 -2 callsubr
          endchar
        </CharString>
        <CharString name="quotedblright">
          -258 -5 callsubr
          272 770 -21 callsubr
          -98 179 -21 callsubr
          endchar
        </CharString>
        <CharString name="quoteleft">
          -414 -5 callsubr
          57 591 -2 callsubr
          endchar
        </CharString>
        <CharString name="quoteright">
          -413 -5 callsubr
          129 770 -21 callsubr
          endchar
        </CharString>
        <CharString name="quotesingle">
          -274 -5 callsubr
          192 770 -21 callsubr
          endchar
        </CharString>
        <CharString name="r">
          -149 21 -21 438 76 -14 -20 hstemhm
          70 83 hintmask 10110000
          70 -38 callsubr
          83 401 vlineto
          hintmask 11010000
          21 23 28 16 40 hhcurveto
          28 28 -7 -8 23 hvcurveto
          33 67 rlineto
          11 -21 -44 13 -35 hhcurveto
          -41 -38 -22 -27 -35 hvcurveto
          hintmask 10110000
          -12 35 rlineto
          endchar
        </CharString>
        <CharString name="registered">
          73 291 61 -61 202 89 133 -61 61 hstemhm
          107 65 84 25 82 25 76 66 hintmask 10011111
          -58 callsubr
          151 -29 rmoveto
          42 -73 rlineto
          26 hlineto
          -46 77 rlineto
          25 9 18 23 27 vvcurveto
          36 -32 28 -37 vhcurveto
          -63 -200 25 73 hlineto
          hintmask 01101111
          19 vmoveto
          89 38 vlineto
          24 20 -17 -28 -28 -20 -16 -24 hvcurveto
          endchar
        </CharString>
        <CharString name="ring">
          -282 586 40 84 40 hstem
          64 40 84 40 vstem
          64 668 -68 callsubr
        </CharString>
        <CharString name="s">
          -56 -39 callsubr
          -79 callsubr
          endchar
        </CharString>
        <CharString name="scaron">
          -56 -15 76 378 76 235 -20 -79 callsubr
          143 530 -67 callsubr
        </CharString>
        <CharString name="semicolon">
          -274 -123 230 226 107 hstem
          107 100 vstem
          107 440 19 callsubr
          -100 -333 13 callsubr
        </CharString>
        <CharString name="seven">
          61 21 -21 634 66 hstem
          500 -37 callsubr
          -380 -66 266 hlineto
          -226 -634 -59 callsubr
          endchar
        </CharString>
        <CharString name="six">
          61 -15 76 327 80 171 76 hstemhm
          66 89 -89 101 297 90 hintmask 11110100
          510 680 rmoveto
          -14 6 -16 6 -17 5 rrcurveto
          9 -31 -41 9 -47 hhcurveto
          -176 -102 -123 -253 -232 93 -122 153 127 115 79 173 143 -79 88 -145 -88 -62 -39 -51 -25 hvcurveto
          148 77 113 112 31 34 -8 -7 27 vhcurveto
          15 -4 15 -5 15 -5 rrcurveto
          -163 -549 rmoveto
          hintmask 11101100
          -85 -66 73 99 118 99 37 60 81 57 -55 -99 -112 -59 -61 -87 hvcurveto
          endchar
        </CharString>
        <CharString name="slash">
          -280 -35 callsubr
          182 -37 callsubr
          -175 -46 callsubr
          175 26 callsubr
          endchar
        </CharString>
        <CharString name="space">
          -329 endchar
        </CharString>
        <CharString name="t">
          -157 0 77 346 77 145 -20 hstemhm
          139 85 -85 199 hintmask 11110000
          54 423 rmoveto
          85 -327 hlineto
          -60 45 -36 64 vhcurveto
          hintmask 11101000
          90 77 -52 hlineto
          hintmask 11110000
          -56 -6 26 44 hvcurveto
          276 124 77 -124 145 -85 -145 -85 vlineto
          endchar
        </CharString>
        <CharString name="thorn">
          -76 21 -21 97 76 171 76 80 -20 hstem
          80 85 185 80 vstem
          80 -38 callsubr
          85 97 104 vlineto
          89 72 72 89 88 -72 74 -89 hvcurveto
          -104 80 hlineto
          -327 vmoveto
          171 104 vlineto
          44 37 -39 -47 -48 -37 -37 -44 hvcurveto
          endchar
        </CharString>
        <CharString name="three">
          61 -15 72 300 75 210 73 hstemhm
          301 195 -92 92 -52 92 hintmask 11100100
          85 70 rmoveto
          -65 49 85 -20 70 hhcurveto
          172 75 124 99 73 -41 97 -98 18 hvcurveto
          hintmask 11101000
          66 16 33 69 59 vvcurveto
          85 -68 90 -134 -69 -58 -24 -36 -47 vhcurveto
          46 -59 rlineto
          27 35 48 19 47 hhcurveto
          81 27 -62 -48 hvcurveto
          hintmask 11110000
          -56 -34 -44 -69 vhcurveto
          -75 vlineto
          hintmask 11100100
          92 51 -68 -81 -87 -59 -64 -85 -56 -62 26 36 -35 hvcurveto
          endchar
        </CharString>
        <CharString name="threesuperior">
          -323 388 36 224 35 hstemhm
          152 44 -29 44 hintmask 11010000
          25 426 rmoveto
          -32 24 34 -6 27 hhcurveto
          71 30 53 39 23 -14 33 -29 19 hvcurveto
          hintmask 11100000
          20 19 8 18 19 vvcurveto
          34 -29 38 -55 -27 -24 -11 -15 -23 vhcurveto
          23 -29 rlineto
          11 16 21 9 15 hhcurveto
          29 10 -23 -17 -19 -14 -14 -27 -3 hvcurveto
          -37 vlineto
          hintmask 11010000
          37 -3 19 -23 -29 vvcurveto
          -33 -20 -23 -33 -19 -23 9 17 -17 vhcurveto
          endchar
        </CharString>
        <CharString name="tilde">
          -216 641 16 callsubr
          hintmask 10000000
          79 641 rmoveto
          hintmask 01000000
          -60 callsubr
          hintmask 10000000
          -26 callsubr
          hintmask 01000000
          -41 callsubr
          hintmask 10000000
          -61 callsubr
          hintmask 01000000
          -25 callsubr
          hintmask 10000000
          -28 callsubr
        </CharString>
        <CharString name="trademark">
          743 435 -21 260 26 hstem
          452 37 121 37 176 37 vstem
          366 -37 callsubr
          -26 86 -260 37 260 86 26 vlineto
          145 -161 rmoveto
          29 hlineto
          74 104 rlineto
          -229 37 286 -37 vlineto
          -88 -126 -88 126 rlineto
          -37 -286 37 229 hlineto
          endchar
        </CharString>
        <CharString name="two">
          61 0 90 549 76 hstem
          431 90 vstem
          529 90 rmoveto
          -310 hlineto
          132 129 rlineto
          93 91 77 96 99 vvcurveto
          133 -120 77 -107 -55 -50 -20 -19 -37 vhcurveto
          -22 -12 -20 -13 -19 -14 50 -62 rcurveline
          15 12 15 11 17 9 rrcurveto
          16 28 37 16 39 hhcurveto
          83 56 -47 -91 -70 -67 -84 -64 -64 hvcurveto
          -195 -193 rlineto
          -90 424 vlineto
          endchar
        </CharString>
        <CharString name="twosuperior">
          -319 394 42 211 36 hstem
          166 43 vstem
          211 436 rmoveto
          -115 hlineto
          45 46 rlineto
          35 35 33 40 39 vvcurveto
          55 -50 32 -44 -19 -21 -9 -8 -16 vhcurveto
          -10 -5 -9 -5 -9 -6 8 -11 7 -7 9 -11 rrcurveto
          8 11 25 18 24 hhcurveto
          29 22 -19 -33 -27 -26 -32 -24 -24 hvcurveto
          -78 -77 rlineto
          -41 173 vlineto
          endchar
        </CharString>
        <CharString name="u">
          10 -15 80 435 -88 callsubr
          endchar
        </CharString>
        <CharString name="uacute">
          -80 callsubr
          134 765 -81 callsubr
        </CharString>
        <CharString name="ucircumflex">
          -80 callsubr
          69 632 -97 callsubr
        </CharString>
        <CharString name="udieresis">
          10 -15 80 435 -20 178 92 hstemhm
          78 83 -7 27 callsubr
          -7 84 hintmask 11110010
          -92 callsubr
          hintmask 11101100
          -130 765 -82 callsubr
        </CharString>
        <CharString name="ugrave">
          -80 callsubr
          -16 632 -72 callsubr
        </CharString>
        <CharString name="underscore">
          91 -192 90 hstem
          39 -192 rmoveto
          572 90 -572 hlineto
          endchar
        </CharString>
        <CharString name="v">
          20 23 callsubr
          443 -20 callsubr
          -154 -412 -153 412 2 callsubr
          195 -500 rlineto
          96 hlineto
          196 500 rlineto
          endchar
        </CharString>
        <CharString name="w">
          257 23 callsubr
          680 -20 callsubr
          -115 -396 -115 396 rlineto
          -84 hlineto
          -116 -396 -114 396 2 callsubr
          157 -500 rlineto
          95 hlineto
          109 395 110 -395 rlineto
          96 hlineto
          157 500 rlineto
          endchar
        </CharString>
        <CharString name="x">
          -4 23 callsubr
          416 -20 callsubr
          -138 -187 -138 187 rlineto
          -94 hlineto
          185 -250 -185 -250 rlineto
          94 hlineto
          138 187 138 -187 rlineto
          93 hlineto
          -186 250 186 250 rlineto
          endchar
        </CharString>
        <CharString name="y">
          -1 22 callsubr
          hstem
          -64 callsubr
          endchar
        </CharString>
        <CharString name="yacute">
          -1 22 callsubr
          270 -20 hstem
          -64 callsubr
          242 250 -81 callsubr
        </CharString>
        <CharString name="ydieresis">
          -1 22 callsubr
          178 92 hstem
          149 27 callsubr
          vstem
          -64 callsubr
          8 250 -82 callsubr
        </CharString>
        <CharString name="z">
          -92 0 76 348 76 -32 callsubr
          endchar
        </CharString>
        <CharString name="zcaron">
          -92 0 76 348 76 250 -20 -32 callsubr
          -180 228 -67 callsubr
        </CharString>
        <CharString name="zero">
          61 -40 callsubr
          hstem
          30 90 380 90 vstem
          590 350 rmoveto
          200 -87 165 -189 -190 -94 -30 callsubr
          -200 94 -165 190 189 87 165 200 vhcurveto
          -90 hmoveto
          -159 -58 -130 -128 -131 -63 -23 callsubr
          159 63 130 131 128 58 -34 callsubr
          vhcurveto
          endchar
        </CharString>
</ttFont>
